# xmcd
#
# Track frame offsets: 
#        150
#        12990
#        25070
#        40967
#        54925
#        67660
#        80712
#        94207
#        108682
#        122140
#        138062
#        152110
#        165235
#        180247
#        194002
#        207017
#        220487
#        233635
#        245715
#        261457
#        274330
#        287180
#        299772
#        315495
#        330515
#
# Disc length: 4576 seconds
#
# Revision: 2
# Processed by: cddbd v1.5.2PL0 Copyright (c) Steve Scherf et al.
# Submitted via: ExactAudioCopy v1.1
#
DISCID=7211de19
DTITLE=Tampa Red - Complete Recorded Works in Chronological Order Volu
DTITLE=me 2 (1929)
DYEAR=1929
DGENRE=Blues
TTITLE0=Tampa Red and Georgia Tom - It's Tight Like That No. 3
TTITLE1=Tampa Red and Georgia Tom - Uncle Bud (Dog-Gone Him)
TTITLE2=Tampa Red and Georgia Tom - Train Time Blues
TTITLE3=How Long, How Long Blues
TTITLE4=It's Tight Like That
TTITLE5=The Hokum Boys - Selling That Stuff
TTITLE6=Tampa Red's Hokum Jug Band - Mess, Katie, Mess
TTITLE7=Tampa Red's Hokum Jug Band - Sho' Is Hot
TTITLE8=Tampa Red's Hokum Jug Band - Boot It Boy
TTITLE9=Tampa Red's Hokum Jug Band - My Daddy Rocks Me (With One Stead
TTITLE9=y Roll)
TTITLE10=Tampa Red and Georgia Tom - Givin' It Away
TTITLE11=Tampa Red and Georgia Tom - What You Gonna Do?
TTITLE12=Tampa Red and Georgia Tom - It's So Nice
TTITLE13=Tampa Red and Georgia Tom - Voice of the Blues
TTITLE14=Gospel Camp Meeting Singers - Come and Go to That Land
TTITLE15=Gospel Camp Meeting Singers - Hold to His Hand
TTITLE16=Tampa Red and Georgia Tom - The Duck Yas-Yas-Yas
TTITLE17=Tampa Red and Georgia Tom - Pat That Bread
TTITLE18=Frankie "Half-Pint" Jaxon - It's Heated
TTITLE19=Frankie "Half-Pint" Jaxon - Jive Man Blues
TTITLE20=Tampa Red and Georgia Tom - What Is It That Tastes Like Gravy?
TTITLE21=Tampa Red and Georgia Tom - You Better Tighten Up On It
TTITLE22=Tampa Red and Georgia Tom - Prison Bound Blues
TTITLE23=Tampa Red and Georgia Tom - You Got to Reap What You Sow
TTITLE24=Lil Johnson - House Rent Scuffle
EXTD=DOCD- 5074 12 January to 27 June 1929
EXTT0=
EXTT1=
EXTT2=
EXTT3=
EXTT4=
EXTT5=
EXTT6=
EXTT7=
EXTT8=
EXTT9=
EXTT10=
EXTT11=
EXTT12=
EXTT13=
EXTT14=
EXTT15=
EXTT16=
EXTT17=
EXTT18=
EXTT19=
EXTT20=
EXTT21=
EXTT22=
EXTT23=
EXTT24=
PLAYORDER=
